# xmcd
#
# Track frame offsets:
#	150
#	12070
#	24948
#	35888
#	51125
#	63531
#	76889
#	90846
#	100821
#	113635
#	129325
#	139060
#	155210
#	174784
#	189283
#
# Disc length: 2677 seconds
#
# Revision: 1
# Processed by: cddbd v1.5.1PL2 Copyright (c) Steve Scherf et al.
# Submitted via: EasyCDDAExtractor 6.2.0.3
#
DISCID=b00a730f
DTITLE=Gin Palace Jesters - Honkytonk Fools
DYEAR=2005
DGENRE=Country
TTITLE0=Naildriver Style
TTITLE1=Pomade On My Pillow
TTITLE2=Drink One For Me
TTITLE3=Up, Down, Over and Through
TTITLE4=Lover Not A Fighter
TTITLE5=Honkytonk Fool
TTITLE6=(I'll Just) Pick Up The Pieces
TTITLE7=Love, Love, Love
TTITLE8=Johnny Come Lately
TTITLE9=Queen Of Broken Hearts
TTITLE10=Gone
TTITLE11=18 Days and 18 Wheels
TTITLE12=Pink Champagne (& A Chevy Caprice)
TTITLE13=(I've) Drunk All My Troubles Away
TTITLE14=Nashville Penny
EXTD=Gin Palace Jesters - Honkytonk Fools
EXTT0=
EXTT1=
EXTT2=
EXTT3=
EXTT4=
EXTT5=
EXTT6=
EXTT7=
EXTT8=
EXTT9=
EXTT10=
EXTT11=
EXTT12=
EXTT13=
EXTT14=
PLAYORDER=
